<svg width="179" height="179" viewBox="0 0 179 179" fill="none" xmlns="http://www.w3.org/2000/svg">
<g clip-path="url(#clip0_51_2)">
<path d="M29.9914 176.692C11.7104 170.235 0.175632 153.689 0.115398 135.026C0.0350862 109.47 0.0300667 83.9135 0.0601836 58.3521C0.0702226 51.4237 -0.281142 44.42 0.602288 37.5869C3.42324 15.7631 21.5737 0.310916 44.2568 0.165424C72.1601 -0.0101694 100.068 -0.0402711 127.972 0.0500341C133.779 0.0701019 139.712 0.265763 145.369 1.43471C163.997 5.29275 178.262 22.2099 178.704 41.2844C179.151 60.6499 178.895 80.0304 178.935 99.4008C178.96 111.01 178.809 122.619 178.995 134.224C179.391 159.353 159.263 178.839 134.899 178.824C106.905 178.804 78.9063 178.844 50.9126 178.995C43.3483 179.035 35.8692 178.91 29.9914 176.692ZM126.908 123.096C126.953 122.685 127.159 121.691 127.159 120.703C127.159 106.43 127.129 92.1513 127.119 77.8781C127.119 75.3245 126.09 73.423 123.896 72.0484C113.711 65.6568 103.522 59.2802 93.4126 52.7782C90.416 50.8467 87.7406 50.932 84.8243 52.8134C74.7803 59.2953 64.7162 65.7521 54.607 72.1236C52.2177 73.6337 51.264 75.5853 51.274 78.3597C51.3292 92.3871 51.279 106.41 51.2841 120.437C51.2841 125.424 53.9795 128.208 59.004 128.233C71.367 128.293 83.73 128.273 96.0981 128.283C103.868 128.288 111.638 128.324 119.409 128.283C123.168 128.263 125.633 126.628 126.908 123.096Z" fill="#01CC96"/>
<path d="M126.908 123.096C125.633 126.628 123.168 128.258 119.409 128.284C111.638 128.329 103.868 128.294 96.0981 128.284C83.7351 128.274 71.3721 128.294 59.0041 128.233C53.9796 128.208 51.2891 125.419 51.2841 120.437C51.2841 106.41 51.3293 92.3872 51.2741 78.3598C51.264 75.5854 52.2127 73.6288 54.607 72.1237C64.7213 65.7472 74.7854 59.2954 84.8244 52.8135C87.7407 50.9321 90.411 50.8468 93.4127 52.7784C103.522 59.2853 113.712 65.6619 123.896 72.0485C126.085 73.4231 127.114 75.3246 127.119 77.8782C127.129 92.1514 127.159 106.43 127.159 120.703C127.159 121.691 126.953 122.68 126.908 123.096ZM124.202 122.218C124.237 121.927 124.413 121.185 124.408 120.447C124.393 106.329 124.408 92.2116 124.247 78.0989C124.232 76.8497 123.299 75.1339 122.26 74.4566C112.11 67.8493 101.835 61.4326 91.6157 54.9256C89.9392 53.857 88.3982 53.8018 86.7167 54.8855C76.4368 61.4727 66.1117 67.9848 55.9021 74.6673C54.9383 75.2995 54.1151 76.93 54.1051 78.1039C54.0047 91.8855 54.0649 105.667 54.095 119.454C54.1051 124.315 55.3399 125.549 60.1636 125.559C75.0363 125.579 89.9041 125.589 104.777 125.599C109.621 125.599 114.469 125.594 119.313 125.564C121.462 125.549 123.294 124.962 124.207 122.228L124.202 122.218Z" fill="white"/>
<path d="M136.729 133.472C135.495 137.143 133.022 137.938 130.121 137.951C123.581 137.992 117.034 138.005 110.493 137.998C90.4118 137.992 70.3371 137.971 50.2555 137.944C43.7424 137.938 42.0819 136.274 42.0616 129.747C42.0209 111.242 41.9396 92.7381 42.0751 74.2272C42.0887 72.6509 43.2002 70.4549 44.5014 69.6129C58.2935 60.6403 72.2347 51.8968 86.1082 43.0522C88.3854 41.6039 90.4661 41.678 92.723 43.1061C106.515 51.8429 120.388 60.4584 134.099 69.33C135.509 70.2393 136.763 72.5498 136.783 74.2204C137.007 93.1692 136.986 112.125 137 131.08C137 132.071 136.77 133.061 136.722 133.458L136.729 133.472Z" fill="white"/>
</g>
<defs>
<clipPath id="clip0_51_2">
<rect width="179" height="179" fill="white"/>
</clipPath>
</defs>
</svg>
